<?xml version="1.0" standalone="no"?>
<!DOCTYPE svg PUBLIC "-//W3C//DTD SVG 20010904//EN"
 "http://www.w3.org/TR/2001/REC-SVG-20010904/DTD/svg10.dtd">
<svg version="1.0" xmlns="http://www.w3.org/2000/svg"
 width="700.000000pt" height="700.000000pt" viewBox="0 0 700.000000 700.000000"
 preserveAspectRatio="xMidYMid meet">
<metadata>
Created by potrace 1.14, written by Peter Selinger 2001-2017
</metadata>
<g transform="translate(0.000000,700.000000) scale(0.100000,-0.100000)"
fill="#000000" stroke="none">
<path d="M4860 6985 c-405 -54 -774 -226 -1077 -502 -18 -16 -256 -250 -529
-519 -273 -269 -564 -556 -648 -638 -150 -148 -1076 -1059 -1314 -1294 l-125
-124 -139 139 c-160 159 -201 208 -280 334 -86 136 -160 342 -185 509 -10 70
-10 308 0 380 12 84 53 232 87 313 188 453 608 763 1115 823 41 5 220 5 270 0
146 -14 286 -52 445 -120 164 -71 196 -79 315 -79 120 -1 216 24 315 83 62 37
130 94 130 110 0 7 -59 63 -125 120 -149 127 -400 262 -620 333 -902 290
-1874 -114 -2296 -954 -27 -53 -49 -101 -49 -104 0 -4 -6 -21 -14 -38 -35 -81
-66 -187 -97 -337 -28 -136 -35 -446 -14 -590 43 -296 138 -547 298 -789 87
-132 142 -195 324 -375 211 -210 1097 -1084 1286 -1269 100 -99 411 -405 691
-680 279 -276 512 -505 517 -508 8 -5 -249 -263 -337 -339 -160 -138 -364
-242 -575 -294 -193 -47 -357 -53 -566 -21 -206 31 -458 143 -618 275 -35 29
-193 187 -216 216 -146 187 -247 432 -277 669 -8 67 -7 268 2 330 21 142 60
268 123 405 19 41 36 82 38 90 2 8 8 33 14 56 50 186 -8 408 -150 574 l-21 24
-51 -54 c-268 -284 -447 -663 -494 -1050 -10 -82 -10 -354 0 -440 16 -130 71
-356 107 -435 5 -11 25 -59 45 -106 157 -373 496 -723 885 -912 140 -69 312
-130 425 -152 168 -33 231 -39 405 -39 144 -1 301 8 332 19 7 2 27 6 43 9 68
11 187 43 275 73 224 78 420 188 610 343 63 51 72 59 588 568 261 257 553 545
650 641 98 95 407 399 687 676 721 711 767 755 774 755 4 0 77 -72 163 -159
193 -197 268 -305 361 -521 22 -51 56 -177 73 -272 24 -134 19 -342 -11 -488
-32 -159 -109 -334 -209 -480 -62 -92 -228 -260 -316 -322 -167 -117 -374
-202 -577 -237 -110 -19 -315 -22 -428 -6 -96 14 -241 57 -356 105 -151 64
-228 82 -346 79 -74 -2 -114 -9 -186 -34 -92 -31 -214 -102 -237 -139 -14 -21
3 -39 140 -147 97 -77 85 -68 163 -117 300 -189 669 -295 1022 -295 90 0 233
10 277 19 13 2 39 7 58 10 19 3 82 16 140 30 397 97 765 332 1022 654 53 67
118 158 118 166 0 3 8 18 19 32 92 132 200 416 237 620 44 254 36 542 -23 767
-8 33 -16 65 -17 70 -21 101 -118 328 -199 463 -128 214 -171 259 -1427 1492
-109 107 -427 421 -707 696 -279 276 -560 552 -623 614 l-114 112 169 164
c229 224 338 304 528 386 95 41 239 84 317 94 25 3 70 9 100 13 60 8 231 6
295 -3 22 -3 55 -8 74 -10 55 -8 186 -44 253 -70 351 -132 638 -417 773 -766
65 -167 89 -293 89 -470 0 -212 -32 -364 -123 -573 -73 -166 -90 -276 -66
-426 14 -90 77 -220 148 -301 l28 -33 26 24 c48 44 176 203 229 284 117 180
225 437 260 620 2 11 6 31 9 45 23 109 29 178 30 345 0 134 -9 275 -20 308 -2
7 -6 28 -9 47 -14 91 -59 239 -112 369 -142 344 -410 659 -729 858 -94 59
-303 163 -327 163 -8 0 -18 4 -23 8 -17 15 -223 74 -305 87 -19 3 -48 8 -65
11 -16 3 -43 7 -60 10 -71 11 -396 10 -485 -1z m-1138 -1808 c135 -133 447
-440 693 -682 245 -242 579 -571 742 -730 l295 -291 -193 -191 c-107 -106
-285 -281 -396 -390 -111 -109 -417 -410 -680 -669 -263 -260 -518 -511 -566
-558 l-88 -86 -282 279 c-155 153 -355 350 -443 437 -89 88 -387 382 -664 654
-276 272 -522 514 -545 537 l-43 41 226 225 c125 124 297 294 384 379 230 225
1083 1067 1201 1185 56 56 104 102 107 102 3 1 116 -108 252 -242z"/>
</g>
</svg>
